<svg width="100" height="100" viewBox="0 0 100 100" xmlns="http://www.w3.org/2000/svg">
  <!-- Background circle -->
  <circle cx="50" cy="50" r="50" fill="#E0F2FE"/>
  
  <!-- Face -->
  <circle cx="50" cy="40" r="25" fill="#FED7AA"/>
  
  <!-- Hair -->
  <path d="M 25 30 Q 25 15 50 15 Q 75 15 75 30 Q 70 25 50 25 Q 30 25 25 30" fill="#92400E"/>
  
  <!-- Eyes -->
  <circle cx="42" cy="35" r="2" fill="#1F2937"/>
  <circle cx="58" cy="35" r="2" fill="#1F2937"/>
  
  <!-- Nose -->
  <ellipse cx="50" cy="42" rx="1" ry="2" fill="#F59E0B" opacity="0.6"/>
  
  <!-- Mouth -->
  <path d="M 45 48 Q 50 52 55 48" stroke="#DC2626" stroke-width="1.5" fill="none" stroke-linecap="round"/>
  
  <!-- Body -->
  <rect x="35" y="62" width="30" height="30" rx="5" fill="#3B82F6"/>
  
  <!-- Arms -->
  <circle cx="30" cy="70" r="8" fill="#FED7AA"/>
  <circle cx="70" cy="70" r="8" fill="#FED7AA"/>
  
  <!-- Book -->
  <rect x="25" y="75" width="10" height="8" rx="1" fill="#10B981"/>
  <rect x="26" y="76" width="8" height="1" fill="#FFFFFF"/>
  <rect x="26" y="78" width="8" height="1" fill="#FFFFFF"/>
  <rect x="26" y="80" width="8" height="1" fill="#FFFFFF"/>
  
  <!-- Backpack -->
  <rect x="68" y="60" width="8" height="15" rx="2" fill="#F59E0B"/>
  <circle cx="72" cy="65" r="1.5" fill="#DC2626"/>
</svg>